<mxfile host="app.diagrams.net" agent="Mozilla/5.0 (Windows NT 10.0; Win64; x64) AppleWebKit/537.36 (KHTML, like Gecko) Chrome/134.0.0.0 Safari/537.36 Edg/134.0.0.0" version="26.1.3">
  <diagram name="Page-1" id="XsfT2RKt-OgCU0C85rvN">
    <mxGraphModel dx="2741" dy="1002" grid="1" gridSize="10" guides="1" tooltips="1" connect="1" arrows="1" fold="1" page="1" pageScale="1" pageWidth="1169" pageHeight="827" math="0" shadow="0">
      <root>
        <mxCell id="0" />
        <mxCell id="1" parent="0" />
        <mxCell id="rs72lggPEq4bTSVEB35E-20" value="" style="whiteSpace=wrap;html=1;fillColor=none;strokeColor=#10739e;" vertex="1" parent="1">
          <mxGeometry x="-990" y="70" width="1200" height="680" as="geometry" />
        </mxCell>
        <mxCell id="MrIc9EOeHbrxdjvRhm3q-8" value="CommandParser" style="swimlane;fontStyle=1;align=center;verticalAlign=top;childLayout=stackLayout;horizontal=1;startSize=26;horizontalStack=0;resizeParent=1;resizeParentMax=0;resizeLast=0;collapsible=1;marginBottom=0;whiteSpace=wrap;html=1;fillColor=#b1ddf0;strokeColor=#10739e;" parent="1" vertex="1">
          <mxGeometry x="-220" y="560" width="400" height="104" as="geometry" />
        </mxCell>
        <mxCell id="MrIc9EOeHbrxdjvRhm3q-10" value="" style="line;strokeWidth=1;fillColor=none;align=left;verticalAlign=middle;spacingTop=-1;spacingLeft=3;spacingRight=3;rotatable=0;labelPosition=right;points=[];portConstraint=eastwest;strokeColor=inherit;" parent="MrIc9EOeHbrxdjvRhm3q-8" vertex="1">
          <mxGeometry y="26" width="400" height="8" as="geometry" />
        </mxCell>
        <mxCell id="MrIc9EOeHbrxdjvRhm3q-11" value="&lt;u&gt;- splitCommandTypeAndParams(userInput: String): String[]&lt;/u&gt;&lt;div&gt;&lt;u&gt;# parseKeyValuePairs(userInput: String, command: Command): void&lt;/u&gt;&lt;/div&gt;&lt;div&gt;&lt;u&gt;+ parseCommand(userInput: String): Command&lt;/u&gt;&lt;/div&gt;&lt;div&gt;&lt;u&gt;+ validateIndex(index: String, internships: InternshipList): String[]&lt;/u&gt;&lt;/div&gt;" style="text;strokeColor=none;fillColor=none;align=left;verticalAlign=top;spacingLeft=4;spacingRight=4;overflow=hidden;rotatable=0;points=[[0,0.5],[1,0.5]];portConstraint=eastwest;whiteSpace=wrap;html=1;" parent="MrIc9EOeHbrxdjvRhm3q-8" vertex="1">
          <mxGeometry y="34" width="400" height="70" as="geometry" />
        </mxCell>
        <mxCell id="MrIc9EOeHbrxdjvRhm3q-20" value="{abstract}&lt;div&gt;Command&lt;/div&gt;" style="swimlane;fontStyle=1;align=center;verticalAlign=top;childLayout=stackLayout;horizontal=1;startSize=40;horizontalStack=0;resizeParent=1;resizeParentMax=0;resizeLast=0;collapsible=1;marginBottom=0;whiteSpace=wrap;html=1;fillColor=#b1ddf0;strokeColor=#10739e;" parent="1" vertex="1">
          <mxGeometry x="-775" y="400" width="400" height="150" as="geometry" />
        </mxCell>
        <mxCell id="MrIc9EOeHbrxdjvRhm3q-21" value="# parameters: HashMap&amp;lt;String, String&amp;gt;" style="text;strokeColor=none;fillColor=none;align=left;verticalAlign=top;spacingLeft=4;spacingRight=4;overflow=hidden;rotatable=0;points=[[0,0.5],[1,0.5]];portConstraint=eastwest;whiteSpace=wrap;html=1;" parent="MrIc9EOeHbrxdjvRhm3q-20" vertex="1">
          <mxGeometry y="40" width="400" height="26" as="geometry" />
        </mxCell>
        <mxCell id="MrIc9EOeHbrxdjvRhm3q-22" value="" style="line;strokeWidth=1;fillColor=none;align=left;verticalAlign=middle;spacingTop=-1;spacingLeft=3;spacingRight=3;rotatable=0;labelPosition=right;points=[];portConstraint=eastwest;strokeColor=inherit;" parent="MrIc9EOeHbrxdjvRhm3q-20" vertex="1">
          <mxGeometry y="66" width="400" height="8" as="geometry" />
        </mxCell>
        <mxCell id="MrIc9EOeHbrxdjvRhm3q-23" value="# isValidParameters(): boolean {abstract}&lt;div&gt;+ execute(internships: InternshipList, user: UserProfile): void {abstract}&lt;/div&gt;&lt;div&gt;+ setParameters(parameters: HashMap&amp;lt;String, String&amp;gt;): void&lt;/div&gt;&lt;div&gt;+ getParameters(): HashMap&amp;lt;String, String&amp;gt;&lt;/div&gt;" style="text;strokeColor=none;fillColor=none;align=left;verticalAlign=top;spacingLeft=4;spacingRight=4;overflow=hidden;rotatable=0;points=[[0,0.5],[1,0.5]];portConstraint=eastwest;whiteSpace=wrap;html=1;" parent="MrIc9EOeHbrxdjvRhm3q-20" vertex="1">
          <mxGeometry y="74" width="400" height="76" as="geometry" />
        </mxCell>
        <mxCell id="MrIc9EOeHbrxdjvRhm3q-25" value="XYZCommand" style="swimlane;fontStyle=1;align=center;verticalAlign=top;childLayout=stackLayout;horizontal=1;startSize=26;horizontalStack=0;resizeParent=1;resizeParentMax=0;resizeLast=0;collapsible=1;marginBottom=0;whiteSpace=wrap;html=1;fillColor=#b1ddf0;strokeColor=#10739e;" parent="1" vertex="1">
          <mxGeometry x="-750" y="640" width="350" height="80" as="geometry" />
        </mxCell>
        <mxCell id="MrIc9EOeHbrxdjvRhm3q-27" value="" style="line;strokeWidth=1;fillColor=none;align=left;verticalAlign=middle;spacingTop=-1;spacingLeft=3;spacingRight=3;rotatable=0;labelPosition=right;points=[];portConstraint=eastwest;strokeColor=inherit;" parent="MrIc9EOeHbrxdjvRhm3q-25" vertex="1">
          <mxGeometry y="26" width="350" height="8" as="geometry" />
        </mxCell>
        <mxCell id="MrIc9EOeHbrxdjvRhm3q-28" value="# isValidParameters(): boolean&lt;div&gt;+ execute(&lt;span style=&quot;background-color: transparent; color: light-dark(rgb(0, 0, 0), rgb(255, 255, 255));&quot;&gt;internships: InternshipList, user: UserProfile&lt;/span&gt;&lt;span style=&quot;background-color: transparent; color: light-dark(rgb(0, 0, 0), rgb(255, 255, 255));&quot;&gt;): void&lt;/span&gt;&lt;/div&gt;" style="text;strokeColor=none;fillColor=none;align=left;verticalAlign=top;spacingLeft=4;spacingRight=4;overflow=hidden;rotatable=0;points=[[0,0.5],[1,0.5]];portConstraint=eastwest;whiteSpace=wrap;html=1;" parent="MrIc9EOeHbrxdjvRhm3q-25" vertex="1">
          <mxGeometry y="34" width="350" height="46" as="geometry" />
        </mxCell>
        <mxCell id="MrIc9EOeHbrxdjvRhm3q-30" value="" style="endArrow=block;endSize=16;endFill=0;html=1;rounded=0;exitX=0.5;exitY=0;exitDx=0;exitDy=0;entryX=0.5;entryY=1;entryDx=0;entryDy=0;" parent="1" source="MrIc9EOeHbrxdjvRhm3q-25" target="MrIc9EOeHbrxdjvRhm3q-20" edge="1">
          <mxGeometry width="160" relative="1" as="geometry">
            <mxPoint x="15" y="354" as="sourcePoint" />
            <mxPoint x="15" y="454" as="targetPoint" />
          </mxGeometry>
        </mxCell>
        <mxCell id="MrIc9EOeHbrxdjvRhm3q-31" value="XYZCommand = AddCommand, FindCommand, etc" style="shape=note2;boundedLbl=1;whiteSpace=wrap;html=1;size=25;verticalAlign=top;align=center;fillColor=#fff2cc;strokeColor=#d6b656;" parent="1" vertex="1">
          <mxGeometry x="-980" y="590" width="190" height="75" as="geometry" />
        </mxCell>
        <mxCell id="MrIc9EOeHbrxdjvRhm3q-32" value="" style="endArrow=none;dashed=1;html=1;rounded=0;exitX=0;exitY=0.5;exitDx=0;exitDy=0;entryX=0;entryY=0;entryDx=190;entryDy=50;entryPerimeter=0;fillColor=#fff2cc;strokeColor=#d6b656;" parent="1" source="MrIc9EOeHbrxdjvRhm3q-28" target="MrIc9EOeHbrxdjvRhm3q-31" edge="1">
          <mxGeometry width="50" height="50" relative="1" as="geometry">
            <mxPoint x="325" y="554" as="sourcePoint" />
            <mxPoint x="375" y="504" as="targetPoint" />
          </mxGeometry>
        </mxCell>
        <mxCell id="rs72lggPEq4bTSVEB35E-7" value="CommandResult" style="swimlane;fontStyle=1;align=center;verticalAlign=top;childLayout=stackLayout;horizontal=1;startSize=26;horizontalStack=0;resizeParent=1;resizeParentMax=0;resizeLast=0;collapsible=1;marginBottom=0;whiteSpace=wrap;html=1;fillColor=#b1ddf0;strokeColor=#10739e;" vertex="1" parent="1">
          <mxGeometry x="-820" y="121" width="490" height="170" as="geometry" />
        </mxCell>
        <mxCell id="rs72lggPEq4bTSVEB35E-8" value="- feedbackToUser: List&amp;lt;String&amp;gt;&lt;div&gt;- relevantInternships: List&amp;lt;Internship&amp;gt;&lt;/div&gt;&lt;div&gt;- isSuccessful: boolean&lt;/div&gt;&lt;div&gt;- isExit: boolean&lt;/div&gt;" style="text;strokeColor=none;fillColor=none;align=left;verticalAlign=top;spacingLeft=4;spacingRight=4;overflow=hidden;rotatable=0;points=[[0,0.5],[1,0.5]];portConstraint=eastwest;whiteSpace=wrap;html=1;" vertex="1" parent="rs72lggPEq4bTSVEB35E-7">
          <mxGeometry y="26" width="490" height="64" as="geometry" />
        </mxCell>
        <mxCell id="rs72lggPEq4bTSVEB35E-9" value="" style="line;strokeWidth=1;fillColor=none;align=left;verticalAlign=middle;spacingTop=-1;spacingLeft=3;spacingRight=3;rotatable=0;labelPosition=right;points=[];portConstraint=eastwest;strokeColor=inherit;" vertex="1" parent="rs72lggPEq4bTSVEB35E-7">
          <mxGeometry y="90" width="490" height="8" as="geometry" />
        </mxCell>
        <mxCell id="rs72lggPEq4bTSVEB35E-10" value="+ CommandResult(feedbackToUser: List&amp;lt;String&amp;gt;)&lt;div&gt;+ CommandResult(feedbackToUser: String)&lt;/div&gt;&lt;div&gt;+ CommandResult(feedbackToUser: List&amp;lt;String&amp;gt;, relevantInternships: List&amp;lt;Internship&amp;gt;)&lt;/div&gt;&lt;div&gt;+ CommandResult(feedbackToUser: String, relevantInternships: List&amp;lt;Internship&amp;gt;)&lt;/div&gt;" style="text;strokeColor=none;fillColor=none;align=left;verticalAlign=top;spacingLeft=4;spacingRight=4;overflow=hidden;rotatable=0;points=[[0,0.5],[1,0.5]];portConstraint=eastwest;whiteSpace=wrap;html=1;" vertex="1" parent="rs72lggPEq4bTSVEB35E-7">
          <mxGeometry y="98" width="490" height="72" as="geometry" />
        </mxCell>
        <mxCell id="rs72lggPEq4bTSVEB35E-15" value="" style="endArrow=open;endSize=12;dashed=1;html=1;rounded=0;exitX=0.5;exitY=0;exitDx=0;exitDy=0;entryX=0.498;entryY=0.986;entryDx=0;entryDy=0;entryPerimeter=0;" edge="1" parent="1" source="MrIc9EOeHbrxdjvRhm3q-20" target="rs72lggPEq4bTSVEB35E-10">
          <mxGeometry x="-1" y="219" width="160" relative="1" as="geometry">
            <mxPoint x="12" y="268" as="sourcePoint" />
            <mxPoint x="-660" y="330" as="targetPoint" />
            <mxPoint x="124" y="-172" as="offset" />
          </mxGeometry>
        </mxCell>
        <mxCell id="rs72lggPEq4bTSVEB35E-16" value="" style="group" vertex="1" connectable="0" parent="1">
          <mxGeometry x="-580" y="329" width="60" height="30" as="geometry" />
        </mxCell>
        <mxCell id="rs72lggPEq4bTSVEB35E-18" value="&lt;font style=&quot;font-size: 11px;&quot;&gt;Create&lt;/font&gt;" style="text;html=1;align=center;verticalAlign=middle;resizable=0;points=[];autosize=1;strokeColor=none;fillColor=none;" vertex="1" parent="rs72lggPEq4bTSVEB35E-16">
          <mxGeometry width="60" height="30" as="geometry" />
        </mxCell>
        <mxCell id="MrIc9EOeHbrxdjvRhm3q-24" value="" style="endArrow=open;endSize=12;dashed=1;html=1;rounded=0;exitX=0;exitY=0.25;exitDx=0;exitDy=0;entryX=1;entryY=0.5;entryDx=0;entryDy=0;" parent="1" source="MrIc9EOeHbrxdjvRhm3q-8" target="MrIc9EOeHbrxdjvRhm3q-23" edge="1">
          <mxGeometry x="-1" y="219" width="160" relative="1" as="geometry">
            <mxPoint x="-55" y="299" as="sourcePoint" />
            <mxPoint x="105" y="299" as="targetPoint" />
            <mxPoint x="124" y="-172" as="offset" />
          </mxGeometry>
        </mxCell>
        <mxCell id="rs72lggPEq4bTSVEB35E-1" value="&lt;font style=&quot;font-size: 11px;&quot;&gt;Call&lt;/font&gt;" style="text;html=1;align=center;verticalAlign=middle;resizable=0;points=[];autosize=1;strokeColor=none;fillColor=none;" vertex="1" parent="1">
          <mxGeometry x="-320" y="520" width="40" height="30" as="geometry" />
        </mxCell>
        <mxCell id="MrIc9EOeHbrxdjvRhm3q-29" value="" style="endArrow=open;endSize=12;dashed=1;html=1;rounded=0;exitX=0;exitY=0.5;exitDx=0;exitDy=0;entryX=1;entryY=0.25;entryDx=0;entryDy=0;strokeColor=default;" parent="1" source="MrIc9EOeHbrxdjvRhm3q-11" target="MrIc9EOeHbrxdjvRhm3q-25" edge="1">
          <mxGeometry x="-0.0533" y="-38" width="160" relative="1" as="geometry">
            <mxPoint x="115" y="316" as="sourcePoint" />
            <mxPoint x="275" y="316" as="targetPoint" />
            <mxPoint as="offset" />
          </mxGeometry>
        </mxCell>
        <mxCell id="rs72lggPEq4bTSVEB35E-5" value="&lt;font style=&quot;font-size: 11px;&quot;&gt;Create&lt;/font&gt;" style="text;html=1;align=center;verticalAlign=middle;resizable=0;points=[];autosize=1;strokeColor=none;fillColor=none;" vertex="1" parent="1">
          <mxGeometry x="-330" y="640" width="60" height="30" as="geometry" />
        </mxCell>
        <mxCell id="rs72lggPEq4bTSVEB35E-21" value="&lt;b&gt;Logic&lt;/b&gt;" style="text;html=1;align=center;verticalAlign=middle;resizable=0;points=[];autosize=1;strokeColor=none;fillColor=none;" vertex="1" parent="1">
          <mxGeometry x="-420" y="80" width="60" height="30" as="geometry" />
        </mxCell>
        <mxCell id="rs72lggPEq4bTSVEB35E-22" value="" style="endArrow=open;endSize=12;dashed=1;html=1;rounded=0;exitX=0;exitY=0.5;exitDx=0;exitDy=0;entryX=1;entryY=0.5;entryDx=0;entryDy=0;" edge="1" parent="1" source="MrIc9EOeHbrxdjvRhm3q-23" target="rs72lggPEq4bTSVEB35E-23">
          <mxGeometry x="-1" y="219" width="160" relative="1" as="geometry">
            <mxPoint x="-565" y="410" as="sourcePoint" />
            <mxPoint x="-1110" y="512" as="targetPoint" />
            <mxPoint x="124" y="-172" as="offset" />
          </mxGeometry>
        </mxCell>
        <mxCell id="rs72lggPEq4bTSVEB35E-23" value="&lt;b&gt;Model&lt;/b&gt;" style="html=1;whiteSpace=wrap;" vertex="1" parent="1">
          <mxGeometry x="-1160" y="500" width="110" height="50" as="geometry" />
        </mxCell>
        <mxCell id="rs72lggPEq4bTSVEB35E-24" value="" style="endArrow=open;endSize=12;dashed=1;html=1;rounded=0;exitX=0;exitY=0.25;exitDx=0;exitDy=0;entryX=1;entryY=0.5;entryDx=0;entryDy=0;" edge="1" parent="1" source="MrIc9EOeHbrxdjvRhm3q-20" target="rs72lggPEq4bTSVEB35E-25">
          <mxGeometry x="-1" y="219" width="160" relative="1" as="geometry">
            <mxPoint x="-765" y="484" as="sourcePoint" />
            <mxPoint x="-1040" y="485" as="targetPoint" />
            <mxPoint x="124" y="-172" as="offset" />
          </mxGeometry>
        </mxCell>
        <mxCell id="rs72lggPEq4bTSVEB35E-25" value="&lt;b&gt;Storage&lt;/b&gt;" style="html=1;whiteSpace=wrap;" vertex="1" parent="1">
          <mxGeometry x="-1160" y="400" width="110" height="50" as="geometry" />
        </mxCell>
      </root>
    </mxGraphModel>
  </diagram>
</mxfile>
